<svg width="32" height="32" viewBox="0 0 32 32" fill="none" xmlns="http://www.w3.org/2000/svg">
<path fill-rule="evenodd" clip-rule="evenodd" d="M15.6571 17.9614C15.896 17.9614 16.1251 18.0727 16.294 18.2709C16.4629 18.4691 16.5578 18.7378 16.5578 19.018V30.6408C16.5578 30.921 16.4629 31.1898 16.294 31.388C16.1251 31.5861 15.896 31.6974 15.6571 31.6974C15.4182 31.6974 15.1891 31.5861 15.0202 31.388C14.8512 31.1898 14.7563 30.921 14.7563 30.6408V19.018C14.7563 18.7378 14.8512 18.4691 15.0202 18.2709C15.1891 18.0727 15.4182 17.9614 15.6571 17.9614Z" fill="#00AC4F"/>
<path fill-rule="evenodd" clip-rule="evenodd" d="M2.30817 8.75392C3.02877 11.3955 4.43393 14.056 6.2084 15.5944C8.27291 17.3865 10.1357 17.9655 11.6453 17.8493C12.3343 17.8046 13.0085 17.5964 13.6268 17.2371C14.2452 16.8779 14.795 16.3751 15.2429 15.7593C15.9905 14.7301 16.2175 13.198 15.8176 11.4272C15.4176 9.66049 14.407 7.7607 12.8451 6.20114C11.2706 4.62678 8.94847 3.21514 6.79749 2.53468C5.7238 2.19656 4.74379 2.05498 3.94753 2.13317C3.15127 2.21136 2.64325 2.50087 2.35501 2.89604C2.04515 3.32292 1.82717 4.06466 1.80555 5.13607C1.78394 6.18846 1.95328 7.44372 2.30817 8.75392ZM0.00226185 5.08746C0.0292842 3.76669 0.297707 2.47128 0.982273 1.52878C1.68846 0.556696 2.72792 0.136163 3.7944 0.0283882C4.86629 -0.0772733 6.06788 0.119257 7.26407 0.497526C9.65465 1.25195 12.22 2.80306 14.0125 4.59297C15.8176 6.39767 17.0516 8.6546 17.556 10.8862C18.0604 13.1135 17.8514 15.4254 16.612 17.1329C16.008 17.9635 15.267 18.6422 14.4336 19.1281C13.6002 19.614 12.6915 19.8971 11.7624 19.9604C9.74473 20.1146 7.47125 19.3222 5.13651 17.2977C2.98013 15.4212 1.39301 12.3358 0.593151 9.39423C0.191418 7.91497 -0.0247605 6.42303 0.00226185 5.08324" fill="#00AC4F"/>
<path fill-rule="evenodd" clip-rule="evenodd" d="M29.2443 14.8442C28.3634 17.2174 26.9006 19.5124 25.1693 20.6303C21.1754 23.2084 18.3633 21.2431 17.3905 19.4236C16.9816 18.6565 16.8915 17.2385 17.4085 15.5775C17.9129 13.9609 18.9398 12.3041 20.4837 11.1693C22.0744 10.0028 24.2938 9.18923 26.2592 8.95044C27.2411 8.83421 28.1094 8.86591 28.7741 9.03497C29.4623 9.21036 29.7812 9.49354 29.9001 9.71543C30.0424 9.98169 30.1523 10.5861 30.0514 11.5814C29.9541 12.5324 29.6803 13.6714 29.2443 14.8442ZM31.8385 11.8329C31.9574 10.6833 31.8997 9.48086 31.4277 8.5933C30.9305 7.66348 30.0406 7.19645 29.156 6.97034C28.2463 6.73788 27.1744 6.71675 26.0755 6.84988C23.8813 7.11404 21.388 8.01216 19.5289 9.37942C17.7791 10.6617 16.4391 12.5856 15.7169 14.8527C15.099 16.837 15.0432 19.0073 15.8628 20.5436C17.3509 23.331 21.2187 25.5921 26.0377 22.4815C28.2427 21.0571 29.9253 18.3036 30.8963 15.6874C31.3881 14.3666 31.7178 13.0269 31.8403 11.8329" fill="#00AC4F"/>
<path fill-rule="evenodd" clip-rule="evenodd" d="M14.0538 17.5663C12.9068 15.8801 11.581 14.3724 10.1085 13.0799L8.81147 11.9388C8.71684 11.8555 8.63712 11.7512 8.57685 11.6318C8.51658 11.5124 8.47695 11.3803 8.46022 11.2429C8.4435 11.1055 8.45 10.9657 8.47935 10.8312C8.50871 10.6968 8.56035 10.5705 8.63132 10.4595C8.70229 10.3485 8.79121 10.255 8.89299 10.1843C8.99478 10.1136 9.10743 10.0671 9.22453 10.0475C9.34163 10.0279 9.46088 10.0355 9.57547 10.0699C9.69005 10.1044 9.79773 10.1649 9.89237 10.2482L11.1894 11.3893C12.7784 12.7904 14.2159 14.4218 15.459 16.2455C15.5995 16.465 15.6618 16.7401 15.6325 17.0124C15.6032 17.2848 15.4847 17.5331 15.302 17.7047C15.1194 17.8764 14.887 17.9579 14.654 17.9321C14.421 17.9063 14.2058 17.7751 14.0538 17.5663ZM18.0964 21.3511C19.2456 20.0039 20.5207 18.813 21.8975 17.8009L23.3405 16.7443C23.4408 16.6707 23.5278 16.5747 23.5965 16.4617C23.6651 16.3488 23.7142 16.221 23.7408 16.0858C23.7674 15.9506 23.771 15.8106 23.7515 15.6738C23.7319 15.5369 23.6896 15.4059 23.6269 15.2882C23.5642 15.1706 23.4824 15.0685 23.3861 14.988C23.2898 14.9074 23.1809 14.8499 23.0656 14.8187C22.9504 14.7875 22.831 14.7832 22.7144 14.8061C22.5977 14.8291 22.486 14.8787 22.3857 14.9522L20.9445 16.0089C19.4517 17.105 18.069 18.3952 16.8227 19.8549C16.6536 20.0531 16.5585 20.3219 16.5583 20.6023C16.5581 20.8827 16.6529 21.1516 16.8218 21.35C16.9907 21.5485 17.2199 21.66 17.4589 21.6602C17.6979 21.6604 17.9272 21.5492 18.0964 21.3511Z" fill="#00AC4F"/>
</svg>
