<svg width="40" height="40" viewBox="0 0 40 40" fill="none" xmlns="http://www.w3.org/2000/svg">
<path d="M16.2583 18.9332C16.1056 18.9332 15.9592 18.9894 15.8512 19.0894C15.7432 19.1894 15.6826 19.3251 15.6826 19.4666V23.7332C15.6826 23.8747 15.7432 24.0103 15.8512 24.1103C15.9592 24.2104 16.1056 24.2666 16.2583 24.2666C16.4109 24.2666 16.5574 24.2104 16.6653 24.1103C16.7733 24.0103 16.8339 23.8747 16.8339 23.7332V19.4666C16.8339 19.3251 16.7733 19.1894 16.6653 19.0894C16.5574 18.9894 16.4109 18.9332 16.2583 18.9332ZM20.2879 11.4666C23.4668 11.4666 26.0446 10.5706 26.0446 9.46655C26.0446 8.36255 23.4656 7.46655 20.2879 7.46655C17.1102 7.46655 14.5312 8.36255 14.5312 9.46655C14.5312 10.5706 17.1091 11.4666 20.2879 11.4666ZM20.2879 10.3999C18.3802 10.3999 16.8339 9.92202 16.8339 9.33322C16.8339 8.74442 18.3802 8.26655 20.2879 8.26655C22.1957 8.26655 23.742 8.74442 23.742 9.33322C23.742 9.92202 22.1957 10.3999 20.2879 10.3999Z" fill="#00AC4F"/>
<path d="M34.173 10.6475C33.5416 10.0626 32.6904 9.72698 31.7978 9.71093C31.7483 8.56107 31.1484 7.6192 30.43 6.9312C29.6897 6.22187 28.7306 5.68 27.7243 5.27253C25.7014 4.45333 23.0718 4 20.2855 4C17.5027 4 14.8719 4.45333 12.8502 5.27253C11.8439 5.68 10.8837 6.22187 10.1445 6.9312C9.39501 7.65013 8.77444 8.64533 8.77444 9.86667V18.8117C8.24122 18.7386 7.69694 18.7822 7.18514 18.9389C6.67334 19.0956 6.20823 19.3611 5.82701 19.7141L5.01187 20.4683C4.69107 20.7654 4.43659 21.1182 4.26298 21.5065C4.08936 21.8948 4 22.3109 4 22.7312C4 23.1515 4.08936 23.5676 4.26298 23.9559C4.43659 24.3442 4.69107 24.697 5.01187 24.9941L8.77444 28.48V30.1333C8.77444 31.3547 9.39501 32.3499 10.1445 33.0699C10.8848 33.7781 11.8451 34.3189 12.8513 34.7275C14.8731 35.5467 17.5027 36 20.2878 36C22.6826 36 24.9473 35.6651 26.8067 35.0613C27.9258 34.6976 28.9804 34.2091 29.8313 33.5744C30.8376 32.8235 31.8012 31.6683 31.8012 30.1333V18.88L34.9881 15.9275C35.3089 15.6303 35.5634 15.2775 35.737 14.8892C35.9106 14.501 36 14.0848 36 13.6645C36 13.2443 35.9106 12.8281 35.737 12.4398C35.5634 12.0515 35.3089 11.6988 34.9881 11.4016L34.173 10.6475ZM11.0771 23.072V13.5413C11.4386 13.7824 11.8266 13.9968 12.2285 14.1877V18.4C12.2285 18.5414 12.2891 18.6771 12.3971 18.7771C12.505 18.8771 12.6515 18.9333 12.8041 18.9333C12.9568 18.9333 13.1032 18.8771 13.2112 18.7771C13.3191 18.6771 13.3798 18.5414 13.3798 18.4V14.6613C15.321 15.3547 17.7399 15.7333 20.2878 15.7333C23.0718 15.7333 25.7026 15.28 27.7232 14.4608C28.7306 14.0523 29.6908 13.5115 30.43 12.8021C30.6741 12.5685 30.9043 12.3061 31.1035 12.016C31.3247 11.8828 31.5886 11.8239 31.851 11.8494C32.1134 11.8748 32.3584 11.983 32.545 12.1557L33.3601 12.9109C33.576 13.111 33.6972 13.3822 33.6972 13.6651C33.6972 13.9479 33.576 14.2192 33.3601 14.4192L29.4985 17.9947V30.1333C29.4985 30.7776 29.0956 31.3835 28.3864 31.9125C28.0525 32.1614 27.6556 32.3915 27.1959 32.6027V28C27.1959 27.8586 27.1352 27.7229 27.0273 27.6229C26.9193 27.5229 26.7729 27.4667 26.6202 27.4667C26.4675 27.4667 26.3211 27.5229 26.2131 27.6229C26.1052 27.7229 26.0445 27.8586 26.0445 28V33.0475C24.4672 33.5595 22.4662 33.8667 20.2878 33.8667C15.2012 33.8667 11.0771 32.1952 11.0771 30.1333V27.5957L6.63986 23.4859C6.53281 23.3868 6.44789 23.2692 6.38995 23.1397C6.33201 23.0102 6.30219 22.8714 6.30219 22.7312C6.30219 22.591 6.33201 22.4522 6.38995 22.3227C6.44789 22.1932 6.53281 22.0756 6.63986 21.9765L7.45501 21.2224C7.67091 21.0224 7.96371 20.9101 8.269 20.9101C8.5743 20.9101 8.86709 21.0224 9.083 21.2224L11.0771 23.072ZM29.4985 9.86667C29.4985 11.9285 25.3745 13.6 20.2878 13.6C15.2012 13.6 11.0771 11.9285 11.0771 9.86667C11.0771 7.8048 15.2012 6.13333 20.2878 6.13333C25.3745 6.13333 29.4985 7.8048 29.4985 9.86667Z" fill="#00AC4F"/>
</svg>
