<svg width="24" height="24" viewBox="0 0 24 24" fill="none" xmlns="http://www.w3.org/2000/svg">
<g clip-path="url(#clip0_417_1060)">
<mask id="mask0_417_1060" style="mask-type:luminance" maskUnits="userSpaceOnUse" x="1" y="1" width="23" height="22">
<path d="M10 16.5L13 17.5C13 17.5 20.5 16 21.5 16C22.5 16 22.5 17 21.5 18C20.5 19 17 22 14 22C11 22 9 20.5 7 20.5H2" stroke="white" stroke-width="2" stroke-linecap="round" stroke-linejoin="round"/>
<path d="M2 14.5C3 13.5 5 12 7 12C9 12 13.75 14 14.5 15C15.25 16 13 17.5 13 17.5" stroke="white" stroke-width="2" stroke-linecap="round" stroke-linejoin="round"/>
<path d="M17 12.5C17.8284 12.5 18.5 11.8284 18.5 11C18.5 10.1716 17.8284 9.5 17 9.5C16.1716 9.5 15.5 10.1716 15.5 11C15.5 11.8284 16.1716 12.5 17 12.5Z" fill="#555555" stroke="white" stroke-width="2"/>
<path d="M11 9C11.8284 9 12.5 8.32843 12.5 7.5C12.5 6.67157 11.8284 6 11 6C10.1716 6 9.5 6.67157 9.5 7.5C9.5 8.32843 10.1716 9 11 9Z" fill="#555555" stroke="white" stroke-width="2"/>
<path d="M17 5C17.8284 5 18.5 4.32843 18.5 3.5C18.5 2.67157 17.8284 2 17 2C16.1716 2 15.5 2.67157 15.5 3.5C15.5 4.32843 16.1716 5 17 5Z" fill="#555555" stroke="white" stroke-width="2"/>
</mask>
<g mask="url(#mask0_417_1060)">
<path d="M0 0H24V24H0V0Z" fill="#9197B3"/>
</g>
</g>
<defs>
<clipPath id="clip0_417_1060">
<rect width="24" height="24" fill="white"/>
</clipPath>
</defs>
</svg>
