<svg width="20" height="18" viewBox="0 0 20 18" fill="none" xmlns="http://www.w3.org/2000/svg">
<mask id="path-1-inside-1_771_404" fill="white">
<path fill-rule="evenodd" clip-rule="evenodd" d="M14.2105 3.90918V10.5645C14.2105 11.2877 13.9221 11.8603 13.4479 12.2406C12.9852 12.6109 12.3884 12.7639 11.8174 12.741C11.1574 12.7151 10.4679 12.4434 10.0047 11.9371C9.88525 12.8491 10.2295 13.4557 10.3858 13.6156L10.7437 13.9809L9.97209 14.6587L9.6142 14.2934C9.18577 13.8559 8.72578 12.8247 9.01999 11.4776C8.56971 11.5669 8.1049 11.5679 7.6542 11.4806C7.18209 11.3859 6.71788 11.182 6.3663 10.8397C6.0063 10.4893 5.78946 10.0173 5.78946 9.44917C5.78946 8.62984 6.09841 8.03776 6.65051 7.60517C7.16104 7.20497 7.8542 6.96475 8.55525 6.74995C8.71946 6.70011 8.88718 6.64977 9.05841 6.59894C10.3947 6.20173 11.9131 5.7502 13.3442 4.60392L14.2105 3.90918ZM10.5058 10.5336C10.7274 10.1489 11.0321 9.73724 11.4437 9.30415L11.7963 8.93385L11.0137 8.26702L10.661 8.63731C10.14 9.18553 9.75999 9.7188 9.49051 10.2247C9.09472 10.4998 8.45788 10.6229 7.87209 10.5052C7.55472 10.4414 7.29525 10.3144 7.12051 10.1444C6.9542 9.98294 6.84209 9.76166 6.84209 9.44868C6.84209 8.90743 7.0263 8.60392 7.32156 8.37217C7.65788 8.10903 8.16578 7.91665 8.87946 7.69787C9.0349 7.65069 9.19735 7.60201 9.36683 7.55184C10.461 7.22839 11.8195 6.8267 13.1579 5.98145V10.5645C13.1579 11.0206 12.9858 11.3051 12.7684 11.4791C12.5395 11.6625 12.2142 11.7592 11.8616 11.7452C11.1626 11.7178 10.5405 11.2847 10.5058 10.5336Z"/>
</mask>
<path fill-rule="evenodd" clip-rule="evenodd" d="M14.2105 3.90918V10.5645C14.2105 11.2877 13.9221 11.8603 13.4479 12.2406C12.9852 12.6109 12.3884 12.7639 11.8174 12.741C11.1574 12.7151 10.4679 12.4434 10.0047 11.9371C9.88525 12.8491 10.2295 13.4557 10.3858 13.6156L10.7437 13.9809L9.97209 14.6587L9.6142 14.2934C9.18577 13.8559 8.72578 12.8247 9.01999 11.4776C8.56971 11.5669 8.1049 11.5679 7.6542 11.4806C7.18209 11.3859 6.71788 11.182 6.3663 10.8397C6.0063 10.4893 5.78946 10.0173 5.78946 9.44917C5.78946 8.62984 6.09841 8.03776 6.65051 7.60517C7.16104 7.20497 7.8542 6.96475 8.55525 6.74995C8.71946 6.70011 8.88718 6.64977 9.05841 6.59894C10.3947 6.20173 11.9131 5.7502 13.3442 4.60392L14.2105 3.90918ZM10.5058 10.5336C10.7274 10.1489 11.0321 9.73724 11.4437 9.30415L11.7963 8.93385L11.0137 8.26702L10.661 8.63731C10.14 9.18553 9.75999 9.7188 9.49051 10.2247C9.09472 10.4998 8.45788 10.6229 7.87209 10.5052C7.55472 10.4414 7.29525 10.3144 7.12051 10.1444C6.9542 9.98294 6.84209 9.76166 6.84209 9.44868C6.84209 8.90743 7.0263 8.60392 7.32156 8.37217C7.65788 8.10903 8.16578 7.91665 8.87946 7.69787C9.0349 7.65069 9.19735 7.60201 9.36683 7.55184C10.461 7.22839 11.8195 6.8267 13.1579 5.98145V10.5645C13.1579 11.0206 12.9858 11.3051 12.7684 11.4791C12.5395 11.6625 12.2142 11.7592 11.8616 11.7452C11.1626 11.7178 10.5405 11.2847 10.5058 10.5336Z" fill="#9197B3"/>
<path d="M14.2105 3.90918H24.2105V-16.9288L7.95429 -3.89208L14.2105 3.90918ZM13.4479 12.2406L19.6968 20.0477L19.7038 20.0421L13.4479 12.2406ZM11.8174 12.741L12.2185 2.74902L12.2097 2.74868L11.8174 12.741ZM10.0047 11.9371L17.3835 5.18777L2.88047 -10.6679L0.0894344 10.6382L10.0047 11.9371ZM10.3858 13.6156L3.23326 20.6043L3.24255 20.6138L10.3858 13.6156ZM10.7437 13.9809L17.3434 21.4938L25.2762 14.5253L17.8869 6.98278L10.7437 13.9809ZM9.97209 14.6587L2.82888 21.6569L9.45662 28.422L16.5718 22.1716L9.97209 14.6587ZM9.6142 14.2934L2.46876 21.2893L2.47099 21.2916L9.6142 14.2934ZM9.01999 11.4776L18.7897 13.6113L22.0465 -1.30073L7.07458 1.66864L9.01999 11.4776ZM7.6542 11.4806L5.68762 21.2853L5.71976 21.2917L5.75194 21.298L7.6542 11.4806ZM6.3663 10.8397L13.3431 3.67556L13.3408 3.6733L6.3663 10.8397ZM6.65051 7.60517L12.8181 15.4767L12.8199 15.4753L6.65051 7.60517ZM8.55525 6.74995L5.65105 -2.81905L5.63836 -2.8152L5.62569 -2.81131L8.55525 6.74995ZM9.05841 6.59894L11.9045 16.1854L11.9076 16.1844L9.05841 6.59894ZM13.3442 4.60392L19.5959 12.4088L19.6004 12.4052L13.3442 4.60392ZM10.5058 10.5336L1.8401 5.54305L0.381414 8.07591L0.516453 10.9957L10.5058 10.5336ZM11.4437 9.30415L4.20198 2.40792L4.19485 2.41541L11.4437 9.30415ZM11.7963 8.93385L19.038 15.8301L26.3265 8.1765L18.2818 1.32213L11.7963 8.93385ZM11.0137 8.26702L17.4992 0.655292L10.2971 -5.48118L3.77198 1.37079L11.0137 8.26702ZM10.661 8.63731L3.41935 1.74108L3.41266 1.74811L10.661 8.63731ZM9.49051 10.2247L15.198 18.4359L17.1809 17.0576L18.3163 14.9262L9.49051 10.2247ZM7.87209 10.5052L5.90146 20.3091L5.90353 20.3096L7.87209 10.5052ZM7.12051 10.1444L14.0927 2.97579L14.0864 2.96971L7.12051 10.1444ZM7.32156 8.37217L1.15934 0.496455L1.15336 0.501129L1.1474 0.505813L7.32156 8.37217ZM8.87946 7.69787L5.97502 -1.87105L5.96174 -1.86702L5.94847 -1.86295L8.87946 7.69787ZM9.36683 7.55184L6.53208 -2.03796L6.52824 -2.03682L9.36683 7.55184ZM13.1579 5.98145H23.1579V-12.1611L7.81825 -2.47363L13.1579 5.98145ZM12.7684 11.4791L6.52058 3.67109L6.51634 3.67448L12.7684 11.4791ZM11.8616 11.7452L12.257 1.75303L12.2534 1.75289L11.8616 11.7452ZM4.21051 3.90918V10.5645H24.2105V3.90918H4.21051ZM4.21051 10.5645C4.21051 8.40663 5.1827 6.0503 7.19195 4.43911L19.7038 20.0421C22.6615 17.6704 24.2105 14.1688 24.2105 10.5645H4.21051ZM7.19896 4.43349C8.95873 3.02495 10.8581 2.69441 12.2185 2.74902L11.4162 22.7329C13.9187 22.8334 17.0118 22.1968 19.6968 20.0477L7.19896 4.43349ZM12.2097 2.74868C13.7908 2.81076 15.7748 3.42902 17.3835 5.18777L2.62592 18.6864C5.16095 21.4579 8.52389 22.6194 11.425 22.7333L12.2097 2.74868ZM0.0894344 10.6382C-0.400045 14.3748 0.786863 18.1006 3.23327 20.6043L17.5383 6.62695C18.2889 7.39514 18.7347 8.11023 18.97 8.53069C19.2501 9.03114 19.4651 9.53476 19.6233 10.0332C19.9478 11.0557 20.0621 12.1513 19.92 13.236L0.0894344 10.6382ZM3.24255 20.6138L3.60044 20.9791L17.8869 6.98278L17.529 6.61747L3.24255 20.6138ZM4.14394 6.46805L3.37236 7.14584L16.5718 22.1716L17.3434 21.4938L4.14394 6.46805ZM17.1153 7.66056L16.7574 7.29525L2.47099 21.2916L2.82888 21.6569L17.1153 7.66056ZM16.7596 7.29752C17.898 8.46019 18.4388 9.66515 18.6905 10.5837C18.9764 11.6269 18.995 12.6712 18.7897 13.6113L-0.749729 9.34388C-1.72203 13.7958 -0.446518 18.3118 2.46876 21.2893L16.7596 7.29752ZM7.07458 1.66864C7.89436 1.50605 8.73628 1.50425 9.55645 1.66317L5.75194 21.298C7.47352 21.6316 9.24507 21.6277 10.9654 21.2865L7.07458 1.66864ZM9.62077 1.67585C10.5209 1.85639 11.9791 2.34725 13.3431 3.67556L-0.610497 18.0038C1.45663 20.0168 3.84327 20.9154 5.68762 21.2853L9.62077 1.67585ZM13.3408 3.6733C14.8801 5.17142 15.7895 7.26964 15.7895 9.44917H-4.21054C-4.21054 12.765 -2.86752 15.8072 -0.608179 18.006L13.3408 3.6733ZM15.7895 9.44917C15.7895 10.324 15.6166 11.4843 15.0272 12.7115C14.4334 13.9479 13.6048 14.8602 12.8181 15.4767L0.482906 -0.266341C-2.55039 2.11035 -4.21054 5.63613 -4.21054 9.44917H15.7895ZM12.8199 15.4753C12.1419 16.0067 11.5794 16.2538 11.4168 16.3224C11.2546 16.3908 11.2049 16.397 11.4848 16.3112L5.62569 -2.81131C5.0472 -2.63406 2.64005 -1.95732 0.48115 -0.264964L12.8199 15.4753ZM11.4594 16.3189C11.6035 16.2752 11.7519 16.2307 11.9045 16.1854L6.21235 -2.98751C6.02249 -2.93114 5.83537 -2.87499 5.65105 -2.81905L11.4594 16.3189ZM11.9076 16.1844C13.1695 15.8094 16.4625 14.9187 19.5959 12.4088L7.09248 -3.20095C7.24609 -3.32399 7.35232 -3.36232 7.2816 -3.33251C7.23458 -3.31269 7.14031 -3.27587 6.96334 -3.2176C6.7706 -3.15415 6.56197 -3.09143 6.20919 -2.98657L11.9076 16.1844ZM19.6004 12.4052L20.4667 11.7104L7.95429 -3.89208L7.08797 -3.19734L19.6004 12.4052ZM19.1714 15.5242C18.953 15.9035 18.7616 16.1202 18.6925 16.1929L4.19485 2.41541C3.30261 3.3543 2.50166 4.39431 1.8401 5.54305L19.1714 15.5242ZM18.6854 16.2004L19.038 15.8301L4.55461 2.03762L4.20198 2.40792L18.6854 16.2004ZM18.2818 1.32213L17.4992 0.655292L4.52817 15.8787L5.31081 16.5456L18.2818 1.32213ZM3.77198 1.37079L3.41935 1.74109L17.9027 15.5335L18.2554 15.1632L3.77198 1.37079ZM3.41266 1.74811C2.33216 2.88495 1.39957 4.14356 0.664693 5.52307L18.3163 14.9262C18.1204 15.294 17.9478 15.4861 17.9094 15.5265L3.41266 1.74811ZM3.78303 2.01341C4.99761 1.16917 6.15975 0.817388 6.99057 0.668672C7.86514 0.512125 8.82768 0.497528 9.84065 0.700918L5.90353 20.3096C8.75469 20.882 12.2502 20.4849 15.198 18.4359L3.78303 2.01341ZM9.84273 0.701335C10.9013 0.914105 12.5576 1.48283 14.0927 2.97579L0.148365 17.313C2.03287 19.1459 4.20819 19.9688 5.90146 20.3091L9.84273 0.701335ZM14.0864 2.96971C14.8557 3.71659 15.5945 4.70279 16.1194 5.93522C16.6445 7.16825 16.8421 8.38208 16.8421 9.44868H-3.15791C-3.15791 12.5014 -1.92503 15.3 0.154624 17.3191L14.0864 2.96971ZM16.8421 9.44868C16.8421 10.3247 16.6882 11.6624 15.9831 13.1284C15.2609 14.6302 14.2645 15.6351 13.4957 16.2385L1.1474 0.505813C0.0833315 1.34098 -1.15274 2.61356 -2.04087 4.46028C-2.91187 6.27137 -3.15791 8.03142 -3.15791 9.44868H16.8421ZM13.4838 16.2479C12.6949 16.8652 12.0243 17.1573 11.8277 17.2397C11.6236 17.3254 11.5539 17.3373 11.8104 17.2587L5.94847 -1.86295C5.38797 -1.69113 3.15015 -1.06123 1.15934 0.496455L13.4838 16.2479ZM11.7839 17.2668C11.9156 17.2268 12.056 17.1847 12.2054 17.1405L6.52824 -2.03682C6.3387 -1.98071 6.15421 -1.92544 5.97502 -1.87105L11.7839 17.2668ZM12.2016 17.1416C13.2448 16.8333 15.848 16.1098 18.4975 14.4365L7.81825 -2.47363C7.83757 -2.48583 7.787 -2.45005 7.59438 -2.37628C7.36646 -2.28899 7.10968 -2.2087 6.53208 -2.03796L12.2016 17.1416ZM3.15788 5.98145V10.5645H23.1579V5.98145H3.15788ZM3.15788 10.5645C3.15788 9.5112 3.36335 8.22145 3.98861 6.88636C4.6184 5.5416 5.52717 4.466 6.52058 3.67109L19.0162 19.2871C21.7193 17.1241 23.1579 13.9089 23.1579 10.5645H3.15788ZM6.51634 3.67448C8.50298 2.08304 10.6701 1.69024 12.257 1.75303L11.4661 21.7374C13.7583 21.8281 16.5759 21.2419 19.0205 19.2837L6.51634 3.67448ZM12.2534 1.75289C13.7684 1.81231 15.642 2.31959 17.3282 3.72172C19.1701 5.25331 20.3784 7.54814 20.4951 10.0716L0.516453 10.9957C0.86121 18.4498 7.25271 21.5722 11.4697 21.7375L12.2534 1.75289Z" fill="#9197B3" mask="url(#path-1-inside-1_771_404)"/>
<mask id="path-3-inside-2_771_404" fill="white">
<path fill-rule="evenodd" clip-rule="evenodd" d="M10 17.4433L9.77053 17.8919L9.76842 17.8909L9.76211 17.8879L9.73947 17.8774L9.65526 17.8375C9.58263 17.8026 9.47737 17.7508 9.34421 17.683C7.76692 16.8746 6.28399 15.9111 4.92 14.8084C2.51789 12.8512 0 9.94917 0 6.34139C0 4.72016 0.566842 3.14976 1.53737 1.97558C2.51105 0.798903 3.91158 0 5.55947 0C7.51526 0 9 1.05009 10 2.53077C10.9995 1.05059 12.4842 0 14.4411 0C16.0884 0 17.4889 0.798904 18.4621 1.97608C19.4337 3.14976 20 4.71966 20 6.34189C20 9.81211 17.4779 12.7147 15.0837 14.7007C13.6285 15.8981 12.0437 16.9465 10.3558 17.8286L10.2721 17.8709L10.2495 17.8824L10.2437 17.8854L10.2411 17.8864L10 17.4433ZM2.36632 2.59008C1.54789 3.57987 1.05263 4.93097 1.05263 6.34139C1.05263 9.50212 3.27158 12.151 5.60632 14.0528C6.95603 15.1432 8.42696 16.0914 9.99316 16.8806L10.1479 16.7989C11.6577 15.9846 13.0787 15.0307 14.39 13.9512C16.7321 12.0075 18.9474 9.35958 18.9474 6.34089C18.9474 4.93048 18.4521 3.57987 17.6337 2.59008C16.8179 1.60379 15.7021 0.99676 14.4411 0.99676C12.6968 0.99676 11.3463 2.07675 10.4726 3.76775L10 4.68328L9.52737 3.76875C8.65368 2.07675 7.30316 0.99676 5.55895 0.99676C4.2979 0.99676 3.18211 1.60379 2.36632 2.59008Z"/>
</mask>
<path fill-rule="evenodd" clip-rule="evenodd" d="M10 17.4433L9.77053 17.8919L9.76842 17.8909L9.76211 17.8879L9.73947 17.8774L9.65526 17.8375C9.58263 17.8026 9.47737 17.7508 9.34421 17.683C7.76692 16.8746 6.28399 15.9111 4.92 14.8084C2.51789 12.8512 0 9.94917 0 6.34139C0 4.72016 0.566842 3.14976 1.53737 1.97558C2.51105 0.798903 3.91158 0 5.55947 0C7.51526 0 9 1.05009 10 2.53077C10.9995 1.05059 12.4842 0 14.4411 0C16.0884 0 17.4889 0.798904 18.4621 1.97608C19.4337 3.14976 20 4.71966 20 6.34189C20 9.81211 17.4779 12.7147 15.0837 14.7007C13.6285 15.8981 12.0437 16.9465 10.3558 17.8286L10.2721 17.8709L10.2495 17.8824L10.2437 17.8854L10.2411 17.8864L10 17.4433ZM2.36632 2.59008C1.54789 3.57987 1.05263 4.93097 1.05263 6.34139C1.05263 9.50212 3.27158 12.151 5.60632 14.0528C6.95603 15.1432 8.42696 16.0914 9.99316 16.8806L10.1479 16.7989C11.6577 15.9846 13.0787 15.0307 14.39 13.9512C16.7321 12.0075 18.9474 9.35958 18.9474 6.34089C18.9474 4.93048 18.4521 3.57987 17.6337 2.59008C16.8179 1.60379 15.7021 0.99676 14.4411 0.99676C12.6968 0.99676 11.3463 2.07675 10.4726 3.76775L10 4.68328L9.52737 3.76875C8.65368 2.07675 7.30316 0.99676 5.55895 0.99676C4.2979 0.99676 3.18211 1.60379 2.36632 2.59008Z" fill="#9197B3"/>
<path d="M10 17.4433L18.7841 12.6642L9.728 -3.98107L1.09741 12.8888L10 17.4433ZM9.77053 17.8919L5.48631 26.9276L14.2538 31.0846L18.6731 22.4464L9.77053 17.8919ZM9.76842 17.8909L14.0526 8.85506L14.0482 8.85296L9.76842 17.8909ZM9.76211 17.8879L14.0419 8.84997L14.0007 8.83048L13.9594 8.81137L9.76211 17.8879ZM9.73947 17.8774L5.46034 26.9156L5.50117 26.9349L5.54218 26.9539L9.73947 17.8774ZM9.65526 17.8375L5.32559 26.8516L5.35082 26.8637L5.37613 26.8757L9.65526 17.8375ZM9.34421 17.683L4.7832 26.5823L4.79554 26.5886L4.8079 26.5949L9.34421 17.683ZM4.92 14.8084L-1.39647 22.5609L-1.38175 22.5729L-1.36698 22.5849L4.92 14.8084ZM1.53737 1.97558L-6.16695 -4.39965L-6.17048 -4.39537L1.53737 1.97558ZM10 2.53077L1.7129 8.12756L10.0008 20.3993L18.2876 8.12683L10 2.53077ZM18.4621 1.97608L10.7548 8.34766L10.759 8.35274L18.4621 1.97608ZM15.0837 14.7007L21.4375 22.4227L21.4529 22.4101L21.4682 22.3974L15.0837 14.7007ZM10.3558 17.8286L14.8724 26.7505L14.9299 26.7213L14.9871 26.6914L10.3558 17.8286ZM10.2721 17.8709L5.75554 8.949L5.75381 8.94988L10.2721 17.8709ZM10.2495 17.8824L5.73118 8.96134L5.69583 8.97924L5.66063 8.99742L10.2495 17.8824ZM10.2437 17.8854L13.7846 27.2375L14.322 27.034L14.8325 26.7703L10.2437 17.8854ZM10.2411 17.8864L1.45697 22.6655L5.62523 30.3268L13.782 27.2385L10.2411 17.8864ZM2.36632 2.59008L-5.33937 -3.78349L-5.34034 -3.78231L2.36632 2.59008ZM5.60632 14.0528L-0.709297 21.8061L-0.693605 21.8189L-0.67786 21.8316L5.60632 14.0528ZM9.99316 16.8806L5.493 25.8108L10.101 28.133L14.6637 25.7229L9.99316 16.8806ZM10.1479 16.7989L14.8184 25.6412L14.8567 25.621L14.8948 25.6004L10.1479 16.7989ZM14.39 13.9512L20.7459 21.6715L20.761 21.659L20.7762 21.6464L14.39 13.9512ZM17.6337 2.59008L25.3403 -3.78231L25.3394 -3.78349L17.6337 2.59008ZM10.4726 3.76775L1.58837 -0.822441L1.58683 -0.819465L10.4726 3.76775ZM10 4.68328L1.11624 9.27445L10.0048 26.4736L18.8858 9.2705L10 4.68328ZM9.52737 3.76875L0.642003 8.35681L0.643608 8.35992L9.52737 3.76875ZM1.09741 12.8888L0.86794 13.3373L18.6731 22.4464L18.9026 21.9979L1.09741 12.8888ZM14.0547 8.85606L14.0526 8.85506L5.4842 26.9266L5.48631 26.9276L14.0547 8.85606ZM14.0482 8.85296L14.0419 8.84997L5.48233 26.9258L5.48865 26.9287L14.0482 8.85296ZM13.9594 8.81137L13.9368 8.8009L5.54218 26.9539L5.56481 26.9644L13.9594 8.81137ZM14.0186 8.8392L13.9344 8.79933L5.37613 26.8757L5.46034 26.9156L14.0186 8.8392ZM13.9849 8.82343C13.99 8.82586 13.9827 8.82241 13.9631 8.81267C13.9441 8.80325 13.9164 8.78938 13.8805 8.77113L4.8079 26.5949C4.99943 26.6924 5.17416 26.7789 5.32559 26.8516L13.9849 8.82343ZM13.9052 8.78375C12.9339 8.28593 12.0302 7.69742 11.207 7.03188L-1.36698 22.5849C0.537784 24.1248 2.59995 25.4634 4.7832 26.5823L13.9052 8.78375ZM11.2365 7.05581C10.9049 6.78568 10.6192 6.52296 10.3856 6.27726C10.1502 6.02957 10.0063 5.8396 9.92746 5.71917C9.77117 5.48027 10 5.72925 10 6.34139H-10C-10 14.6679 -4.35862 20.1475 -1.39647 22.5609L11.2365 7.05581ZM10 6.34139C10 6.97856 9.79855 7.67709 9.24522 8.34653L-6.17048 -4.39537C-8.66486 -1.37757 -10 2.46176 -10 6.34139H10ZM9.24169 8.3508C8.63808 9.08025 7.36286 10 5.55947 10V-10C0.460301 -10 -3.61598 -7.48244 -6.16695 -4.39965L9.24169 8.3508ZM5.55947 10C4.66129 10 3.73986 9.73635 2.96593 9.26864C2.25153 8.8369 1.87129 8.36208 1.7129 8.12756L18.2871 -3.06601C15.9182 -6.57367 11.6274 -10 5.55947 -10V10ZM18.2876 8.12683C18.1289 8.36184 17.7484 8.83689 17.0339 9.26871C16.2599 9.73652 15.3386 10 14.4411 10V-10C8.37208 -10 4.08101 -6.5731 1.71241 -3.06528L18.2876 8.12683ZM14.4411 10C12.6366 10 11.3599 9.07962 10.7548 8.34765L26.1694 -4.3955C23.618 -7.48181 19.5403 -10 14.4411 -10V10ZM10.759 8.35274C10.2006 7.67826 10 6.97565 10 6.34189H30C30 2.46367 28.6667 -1.37873 26.1652 -4.40059L10.759 8.35274ZM10 6.34189C10 5.58109 10.2845 5.28037 10.0956 5.56641C10.0078 5.69929 9.85079 5.90486 9.5987 6.17125C9.34906 6.43503 9.0466 6.7159 8.69918 7.00409L21.4682 22.3974C24.2673 20.0754 30 14.583 30 6.34189H10ZM8.7299 6.97871C7.81354 7.73271 6.80688 8.40005 5.72446 8.96567L14.9871 26.6914C17.2805 25.493 19.4434 24.0635 21.4375 22.4227L8.7299 6.97871ZM5.83923 8.90664L5.75554 8.949L14.7887 26.7928L14.8724 26.7505L5.83923 8.90664ZM5.75381 8.94988L5.73118 8.96134L14.7678 26.8034L14.7904 26.792L5.75381 8.94988ZM5.66063 8.99742L5.65484 9.00041L14.8325 26.7703L14.8383 26.7673L5.66063 8.99742ZM6.70275 8.53327L6.70012 8.53427L13.782 27.2385L13.7846 27.2375L6.70275 8.53327ZM19.0251 13.1073L18.7841 12.6642L1.21591 22.2224L1.45697 22.6655L19.0251 13.1073ZM-5.34034 -3.78231C-7.68376 -0.948232 -8.94737 2.67255 -8.94737 6.34139H11.0526C11.0526 7.18939 10.7795 8.10796 10.073 8.96248L-5.34034 -3.78231ZM-8.94737 6.34139C-8.94737 14.217 -3.61048 19.4429 -0.709297 21.8061L11.9219 6.29957C11.6122 6.04727 11.3594 5.81289 11.1634 5.60632C10.9654 5.39766 10.8634 5.25748 10.8242 5.19751C10.7859 5.13893 10.8409 5.20814 10.9081 5.40681C10.98 5.61924 11.0526 5.94296 11.0526 6.34139H-8.94737ZM-0.67786 21.8316C1.22993 23.3728 3.29982 24.7056 5.493 25.8108L14.4933 7.95043C13.5541 7.47713 12.6821 6.9136 11.8905 6.27407L-0.67786 21.8316ZM14.6637 25.7229L14.8184 25.6412L5.47734 7.95662L5.32261 8.03835L14.6637 25.7229ZM14.8948 25.6004C16.969 24.4818 18.9296 23.1668 20.7459 21.6715L8.03414 6.23086C7.22788 6.89462 6.34649 7.48744 5.40099 7.99738L14.8948 25.6004ZM20.7762 21.6464C23.5241 19.366 28.9474 14.1285 28.9474 6.34089H8.94737C8.94737 5.34025 9.31889 4.86198 9.20172 5.03946C9.15269 5.11373 9.03616 5.27144 8.81939 5.50102C8.6052 5.72785 8.3329 5.98282 8.00382 6.25592L20.7762 21.6464ZM28.9474 6.34089C28.9474 2.67118 27.6832 -0.948892 25.3403 -3.78231L9.92703 8.96248C9.221 8.10862 8.94737 7.18978 8.94737 6.34089H28.9474ZM25.3394 -3.78349C22.9377 -6.68715 19.1425 -9.00324 14.4411 -9.00324V10.9968C12.2617 10.9968 10.6981 9.89473 9.928 8.96365L25.3394 -3.78349ZM14.4411 -9.00324C7.7952 -9.00324 3.5709 -4.65959 1.58837 -0.822441L19.3569 8.35795C19.2479 8.56894 18.8699 9.21448 17.9948 9.84803C17.0277 10.5482 15.7646 10.9968 14.4411 10.9968V-9.00324ZM1.58683 -0.819465L1.1142 0.096059L18.8858 9.2705L19.3584 8.35498L1.58683 -0.819465ZM18.8838 0.092113L18.4111 -0.822415L0.643608 8.35992L1.11624 9.27445L18.8838 0.092113ZM18.4127 -0.819309C16.4304 -4.65838 12.2058 -9.00324 5.55895 -9.00324V10.9968C4.23534 10.9968 2.97178 10.5482 2.00418 9.84744C1.12872 9.21343 0.7508 8.56751 0.642004 8.35681L18.4127 -0.819309ZM5.55895 -9.00324C0.857521 -9.00324 -2.93768 -6.68715 -5.33937 -3.78349L10.072 8.96365C9.30189 9.89473 7.73827 10.9968 5.55895 10.9968V-9.00324Z" fill="#9197B3" mask="url(#path-3-inside-2_771_404)"/>
<mask id="path-5-inside-3_771_404" fill="white">
<path d="M10 17.4434L10.2411 17.8864L10.0074 18.0001L9.77054 17.8919L10 17.4434Z"/>
</mask>
<path d="M10 17.4434L10.2411 17.8864L10.0074 18.0001L9.77054 17.8919L10 17.4434Z" fill="#9197B3"/>
<path d="M10 17.4434L18.7841 12.6643L9.72801 -3.98102L1.09743 12.8888L10 17.4434ZM10.2411 17.8864L14.6141 26.8796L24.0277 22.3021L19.0252 13.1073L10.2411 17.8864ZM10.0074 18.0001L5.85369 27.0966L10.1414 29.0545L14.3804 26.9932L10.0074 18.0001ZM9.77054 17.8919L0.867952 13.3373L-3.89409 22.6455L5.61684 26.9884L9.77054 17.8919ZM1.21592 22.2225L1.45698 22.6655L19.0252 13.1073L18.7841 12.6643L1.21592 22.2225ZM5.86807 8.89326L5.63438 9.00689L14.3804 26.9932L14.6141 26.8796L5.86807 8.89326ZM14.1611 8.90352L13.9242 8.79537L5.61684 26.9884L5.85369 27.0966L14.1611 8.90352ZM18.6731 22.4465L18.9026 21.9979L1.09743 12.8888L0.867952 13.3373L18.6731 22.4465Z" fill="#9197B3" mask="url(#path-5-inside-3_771_404)"/>
</svg>
